<?xml version="1.0" encoding="UTF-8" standalone="no"?>
<!-- Created with Inkscape (http://www.inkscape.org/) -->

<svg
   width="100mm"
   height="25.00001mm"
   viewBox="0 0 100 25.00001"
   version="1.1"
   id="svg1"
   xml:space="preserve"
   xmlns="http://www.w3.org/2000/svg"
   xmlns:svg="http://www.w3.org/2000/svg"><defs
     id="defs1" /><g
     id="layer1"
     transform="translate(-54.999996,-136.00001)"><path
       style="fill:#000000;stroke-width:1.0266"
       d="m 56.604808,160.73946 -0.475339,-0.12422 v -0.38751 -0.38752 l 0.611149,-0.0198 0.61115,-0.0198 0.723789,-0.45549 0.723789,-0.45549 1.449186,-0.99861 1.449187,-0.99862 1.671686,-1.31017 1.671686,-1.31017 2.131022,-1.67693 2.131022,-1.67693 1.067924,-0.97139 1.067922,-0.97138 h 0.358093 0.358092 v 0.22312 0.22313 l -0.475339,0.94367 -0.475338,0.94367 -0.543245,0.74905 -0.543243,0.74907 -0.861971,1.07278 -0.861973,1.0728 -0.311733,0.94456 -0.311734,0.94457 0.14864,0.2405 0.14864,0.24051 0.753444,-0.13998 0.753443,-0.13998 1.467997,-0.97798 1.467997,-0.978 0.612116,-0.41578 0.612116,-0.41579 1.125652,-0.94232 1.125651,-0.94232 0.751898,-0.67906 0.751899,-0.67906 1.610589,-1.51562 1.610584,-1.51564 1.567335,-1.66153 1.567331,-1.66155 -0.1719,-1.07508 -0.17192,-1.07509 0.50593,-0.86429 0.50593,-0.86431 1.48619,-1.05736 1.48619,-1.05736 0.2193,0.39187 0.2193,0.39188 -0.41528,0.99392 -0.41529,0.99393 v 0.22358 0.22358 l 1.87469,-0.0177 1.87469,-0.0177 0.35603,0.22003 0.35603,0.22004 -1.89119,0.50559 -1.89119,0.50559 -0.81487,0.14755 -0.81486,0.14754 -2.03717,2.11463 -2.037163,2.11463 -2.261686,2.31328 -2.261681,2.3133 1.311006,-0.10082 1.311003,-0.10081 1.222302,-0.27434 1.222293,-0.27434 2.021186,-0.27576 2.02119,-0.27576 0.19582,0.31685 0.19583,0.31685 -1.19843,1.19843 -1.19843,1.19843 v 0.25535 0.25536 l 0.74696,-0.17281 0.74697,-0.17281 1.62973,-0.70327 1.62973,-0.70328 0.81487,-0.48667 0.81486,-0.48666 1.65858,-0.80842 1.65859,-0.80843 0.34394,-0.41441 0.34393,-0.41441 h 0.2351 0.2351 l 1.57395,-1.56183 1.57396,-1.56182 1.470398,-1.35811 1.47041,-1.35812 2.18763,-1.66843 2.18762,-1.66845 0.21672,0.20111 0.21672,0.20111 -0.32584,0.71515 -0.32585,0.71515 -0.50202,0.15934 -0.50202,0.15934 v 0.51538 0.51538 l -0.56134,0.30041 -0.56132,0.30042 -0.98924,1.09496 -0.98922,1.09496 -1.63896,1.26249 -1.638968,1.26251 -0.73123,0.40743 -0.73123,0.40743 -1.92617,1.74442 -1.92616,1.74441 0.1089,0.29275 0.1089,0.29275 0.31401,-0.0707 0.31401,-0.0707 2.23245,-0.44213 2.23245,-0.44213 0.74512,-0.37595 0.7451,-0.37594 0.735808,-0.27975 0.73581,-0.27975 -0.44825,0.48948 -0.44827,0.4895 -1.168468,0.6003 -1.16848,0.60032 -2.82656,0.96151 -2.82656,0.96152 h -0.60756 -0.60756 l -0.14338,-0.37364 -0.14337,-0.37363 0.39079,-0.75326 0.3908,-0.75327 -0.139,-0.13901 -0.139,-0.139 -0.4984,0.45104 -0.49839,0.45104 h -0.30235 -0.30233 l -2.25668,1.06648 -2.25668,1.0665 -1.08649,0.0879 -1.08649,0.0879 -0.0152,-0.67906 -0.0152,-0.67905 0.38601,-0.61115 0.38602,-0.61115 h -0.29009 -0.29008 l -0.759733,0.334 -0.759748,0.33399 -0.135809,0.16989 -0.135809,0.16989 -1.029784,0.33574 -1.029785,0.33575 -0.396227,-0.15205 -0.396238,-0.15205 v -0.67479 -0.67477 l -1.426011,0.16244 -1.426015,0.16245 -0.814866,0.55519 -0.814866,0.5552 -0.655407,0.63489 -0.655409,0.63488 -1.553873,0.94393 -1.553874,0.94393 -0.813282,0.16266 -0.813282,0.16265 -0.590507,-0.31603 -0.590508,-0.31602 0.174186,-1.27312 0.174186,-1.27311 0.801006,-1.32504 0.801007,-1.32504 -0.111567,-0.11157 -0.111567,-0.11156 -1.324883,0.99392 -1.324885,0.99391 -0.950677,0.88762 -0.950677,0.88762 -2.308787,1.73687 -2.308786,1.73686 -1.034109,0.60233 -1.034109,0.60233 -0.18819,-0.0315 -0.18819,-0.0315 z m 12.834138,-8.64047 v -0.13581 h -0.135811 -0.135811 v 0.13581 0.13581 h 0.135811 0.135811 z m 16.315176,-9.92376 0.52539,-0.28119 v -0.58102 -0.58104 l -0.67906,0.63794 -0.67906,0.63793 v 0.22428 0.22428 h 0.15367 0.15367 z m -30.439519,17.24152 v -0.42347 l 0.271622,0.16787 0.271623,0.16787 v 0.2556 0.25559 h -0.271623 -0.271622 z m -0.174662,-2.35893 0.139945,-1.01684 1.579185,-1.46199 1.579185,-1.46198 1.086488,-0.97143 1.086488,-0.97144 0.679054,-0.35244 0.679056,-0.35244 0.482423,-0.5951 0.482425,-0.5951 0.508144,-0.16127 0.508145,-0.16128 0.99803,-0.94127 0.998032,-0.94126 h 0.388092 0.388093 v -0.21581 -0.21581 l 1.367218,-1.04265 1.367218,-1.04266 0.162949,0.16295 0.16295,0.16296 -1.326451,1.22053 -1.326451,1.22054 -0.240474,0.0108 -0.240476,0.0108 -0.601395,0.61115 -0.601396,0.61115 -0.787861,0.68679 -0.787861,0.68679 -1.221397,0.94295 -1.221397,0.94293 -0.664482,0.54325 -0.664482,0.54325 -2.188451,1.92138 -2.188451,1.92137 -0.361019,0.65903 -0.361019,0.65903 z m 58.219789,-0.10634 -0.18964,-0.18965 v -0.61776 -0.61775 l -0.28529,-0.17631 -0.28527,-0.17632 -0.89441,0.42443 -0.8944,0.42443 -1.54075,0.12731 -1.54074,0.12732 -0.44662,-0.68163 -0.44662,-0.68165 -0.70204,0.17621 -0.70206,0.1762 -0.37259,0.30923 -0.37261,0.30923 -0.98702,0.36886 -0.98703,0.36885 -1.02178,0.12885 -1.02177,0.12883 -0.14823,-0.38626 -0.14822,-0.38627 0.68799,-1.05365 0.68799,-1.05364 0.3765,-0.40743 0.3765,-0.40744 0.30922,-0.59329 0.30924,-0.5933 v -0.15366 -0.15367 h -0.81487 -0.81487 v -0.37418 -0.37416 l 0.39393,-0.32694 0.39394,-0.32695 1.50742,0.31294 1.50742,0.31294 v 0.329 0.32899 l -1.76555,1.707 -1.76554,1.70699 v 0.40539 0.40537 l 0.26837,-0.16586 0.26835,-0.16585 1.46528,-0.38166 1.46529,-0.38166 1.45791,-0.8577 1.45792,-0.8577 0.13581,-0.1931 0.13581,-0.19309 0.81487,-0.44636 0.81486,-0.44636 1.06029,-0.41952 1.06028,-0.41952 0.15241,0.1524 0.1524,0.15241 -0.28771,0.45613 -0.28773,0.45613 -0.51753,0.14199 -0.51754,0.14199 -1.2223,0.81232 -1.2223,0.81233 -0.19956,0.27416 -0.19955,0.27417 -0.004,0.19853 -0.004,0.19855 0.64679,0.16233 0.64679,0.16234 2.54476,-0.6219 2.54477,-0.62189 0.92067,-0.62175 0.92068,-0.62176 h 0.47208 0.47208 l 0.30146,-0.36323 0.30145,-0.36323 1.51918,-0.36444 1.51917,-0.36445 0.24538,0.38815 0.24538,0.38815 -0.0819,0.25913 -0.0819,0.25915 -0.93177,0.24145 -0.93178,0.24144 -0.13624,0.1917 -0.13623,0.19169 -1.22229,0.34016 -1.22231,0.34017 -0.74695,0.29071 -0.74697,0.29071 v 0.51029 0.51029 h 0.30619 0.3062 l 1.79887,-0.84116 1.79888,-0.84116 0.40744,-0.25322 0.40742,-0.25321 0.47534,-0.1596 0.47535,-0.15961 v -0.22904 -0.22903 l 1.08971,-0.32649 1.08972,-0.32648 0.30164,-0.36348 0.30166,-0.36347 h 0.34091 0.34093 l 0.31981,-0.38534 0.3198,-0.38535 1.85482,-1.10192 1.85481,-1.10193 0.1589,-0.41408 0.1589,-0.41409 h 0.41596 0.41596 v -0.38912 -0.38914 l 0.53772,-0.17066 0.53772,-0.17067 -0.0624,-0.2869 -0.0624,-0.28689 0.50023,-0.0836 0.50023,-0.0836 0.043,-0.0883 0.043,-0.0883 0.30123,-0.54325 0.30122,-0.54324 h 0.3552 0.35519 l 0.11427,0.34282 0.11428,0.34283 -2.19671,2.20854 -2.19671,2.20854 v 0.20189 0.20181 l -0.89485,0.42464 -0.89486,0.42464 -1.01147,0.98232 -1.01146,0.98232 0.15132,0.24484 0.15132,0.24483 -0.55379,0.34585 -0.55378,0.34584 v 0.39538 0.39538 l 0.8957,-0.86815 0.8957,-0.86815 h 0.29334 0.29334 l 0.33813,-0.40744 0.33815,-0.40742 h 0.50998 0.50999 v 0.98539 0.98539 l 1.1473,-0.18346 1.14729,-0.18346 0.4755,-0.43032 0.4755,-0.43032 0.15875,-0.5002 0.15876,-0.50019 1.35674,-0.17997 1.35674,-0.17998 0.86813,-0.6363 0.86814,-0.63631 0.60592,-0.31866 0.60593,-0.31866 0.14773,-0.43411 0.14772,-0.43412 1.166,-0.87641 1.166,-0.87641 1.06819,-1.40067 1.06819,-1.40068 0.85561,-0.91448 0.85561,-0.91446 h 0.29878 0.29878 v 0.65965 0.65965 l -0.34513,0.35893 -0.34513,0.35893 -1.07748,1.35811 -1.07748,1.35811 -0.58279,0.56874 -0.58278,0.56874 -0.98245,1.39773 -0.98244,1.39774 v 0.15462 0.15463 l 0.28115,-0.17376 0.28115,-0.17375 1.63954,0.008 1.63955,0.008 0.67299,-0.25587 0.673,-0.25588 3.17828,-0.14358 3.17827,-0.14357 1.22229,-0.24915 1.22231,-0.24917 1.01857,-0.16449 L 155,149.49475 v 0.25066 0.25068 l -0.44905,0.37278 -0.44906,0.37279 -0.56953,0.0311 -0.56952,0.0311 -1.76554,0.32382 -1.76556,0.32382 -1.76553,0.27568 -1.76554,0.27568 -2.17298,0.21532 -2.17297,0.21532 -2.08815,0.36701 -2.08814,0.36701 -0.29143,0.55261 -0.29143,0.5526 -0.49298,0.81486 -0.49297,0.81487 -0.58103,0.0855 -0.58103,0.0855 -0.18724,-0.76459 -0.18723,-0.7646 -0.2977,-0.19956 -0.29771,-0.19956 -0.49474,-0.004 -0.49474,-0.004 -0.40743,0.40744 -0.40744,0.40743 h -0.74113 -0.74115 l -0.28639,0.2864 -0.2864,0.28639 -0.84571,0.10703 -0.84572,0.10704 -0.54041,-0.68702 -0.54041,-0.68702 -0.48687,0.16029 -0.48687,0.16029 -1.3568,1.22023 -1.35679,1.22022 -0.27294,-0.0906 -0.27293,-0.0906 -0.26178,-0.74077 -0.26178,-0.74075 0.31269,-0.19325 0.31268,-0.19326 0.2819,-0.74143 0.28189,-0.74142 h -0.42669 -0.42668 l -0.72099,0.50285 -0.72098,0.50285 -1.28635,0.48325 -1.28636,0.48325 -0.30873,0.37201 -0.30873,0.372 h -0.52785 -0.52784 l -0.45748,0.2369 -0.45749,0.23691 -1.23635,0.1791 -1.23637,0.17909 z m 21.9939,-3.47155 -0.1616,-0.42111 -0.41275,0.15838 -0.41273,0.15839 0.29181,0.54525 0.29181,0.54526 0.28252,-0.28253 0.28253,-0.28252 z m -9.68894,-0.56608 v -0.13581 h 0.13581 0.13582 v 0.13581 0.13581 h -0.13582 -0.13581 z m -55.6825,-8.96352 v -0.40744 h 0.370084 0.370083 l 1.025376,-0.81486 1.025375,-0.81487 h 0.113864 0.113864 l -0.391665,0.55918 -0.391666,0.55918 -0.898806,0.66312 -0.898807,0.66312 H 70.201041 69.98219 Z m 3.715087,-2.92376 0.495054,-0.61496 1.476079,-1.3543 1.47608,-1.35429 0.756843,-0.81487 0.756833,-0.81487 0.0082,0.43077 0.0082,0.43076 -0.987006,1.26688 -0.987015,1.26687 h -0.261486 -0.261511 l -1.234315,1.0865 -1.234316,1.08648 h -0.253095 -0.253094 z"
       id="path1" /><rect
       style="font-variation-settings:'wght' 600;fill:none;stroke-width:0.292562"
       id="rect1"
       width="100"
       height="25"
       x="55"
       y="136" /></g></svg>
